<mxfile host="app.diagrams.net" modified="2023-05-10T14:55:13.270Z" agent="Mozilla/5.0 (X11; Linux x86_64) AppleWebKit/537.36 (KHTML, like Gecko) Chrome/109.0.0.0 Safari/537.36" etag="fYSGdzhHPiJWTOVJ8wKj" version="21.2.3" type="device">
  <diagram id="R2lEEEUBdFMjLlhIrx00" name="Page-1">
    <mxGraphModel dx="1647" dy="2003" grid="1" gridSize="10" guides="1" tooltips="1" connect="1" arrows="1" fold="1" page="1" pageScale="1" pageWidth="1920" pageHeight="1200" math="0" shadow="0" extFonts="Permanent Marker^https://fonts.googleapis.com/css?family=Permanent+Marker">
      <root>
        <mxCell id="0" />
        <mxCell id="1" parent="0" />
        <mxCell id="tjgMWZh8-_X_6OKFMfRl-12" value="" style="rounded=1;whiteSpace=wrap;html=1;fillColor=none;" parent="1" vertex="1">
          <mxGeometry x="200" y="-440" width="1520" height="1600" as="geometry" />
        </mxCell>
        <mxCell id="VIYJG-TJrEjDD1v3pH2z-100" value="" style="rounded=1;whiteSpace=wrap;html=1;opacity=25;" parent="1" vertex="1">
          <mxGeometry x="1340" y="-420" width="260" height="339" as="geometry" />
        </mxCell>
        <mxCell id="VIYJG-TJrEjDD1v3pH2z-24" value="" style="endArrow=none;html=1;rounded=0;entryX=1;entryY=0.5;entryDx=0;entryDy=0;" parent="1" target="VIYJG-TJrEjDD1v3pH2z-13" edge="1">
          <mxGeometry width="50" height="50" relative="1" as="geometry">
            <mxPoint x="1850" y="380" as="sourcePoint" />
            <mxPoint x="910" y="910" as="targetPoint" />
          </mxGeometry>
        </mxCell>
        <mxCell id="VIYJG-TJrEjDD1v3pH2z-23" value="" style="endArrow=none;html=1;rounded=0;entryX=1.008;entryY=0.363;entryDx=0;entryDy=0;entryPerimeter=0;" parent="1" target="VIYJG-TJrEjDD1v3pH2z-16" edge="1">
          <mxGeometry width="50" height="50" relative="1" as="geometry">
            <mxPoint x="1850" y="380" as="sourcePoint" />
            <mxPoint x="670" y="910" as="targetPoint" />
          </mxGeometry>
        </mxCell>
        <mxCell id="xt060wj-qjY4TburNqJA-20" value="Customer" style="shape=umlActor;verticalLabelPosition=bottom;verticalAlign=top;html=1;outlineConnect=0;" parent="1" vertex="1">
          <mxGeometry x="40" y="440" width="30" height="60" as="geometry" />
        </mxCell>
        <mxCell id="xt060wj-qjY4TburNqJA-21" value="Employee" style="shape=umlActor;verticalLabelPosition=bottom;verticalAlign=top;html=1;outlineConnect=0;" parent="1" vertex="1">
          <mxGeometry x="1849" y="120" width="31" height="60" as="geometry" />
        </mxCell>
        <mxCell id="xt060wj-qjY4TburNqJA-22" value="Manager" style="shape=umlActor;verticalLabelPosition=bottom;verticalAlign=top;html=1;outlineConnect=0;" parent="1" vertex="1">
          <mxGeometry x="1849" y="360" width="30" height="60" as="geometry" />
        </mxCell>
        <mxCell id="QbguWH6vcUpEMpohlRz4-1" value="&lt;font style=&quot;font-size: 16px;&quot;&gt;AI Quant Assistant Commercial System&lt;/font&gt;" style="text;html=1;strokeColor=none;fillColor=none;align=center;verticalAlign=middle;whiteSpace=wrap;rounded=0;" parent="1" vertex="1">
          <mxGeometry x="880" y="-400" width="160" height="30" as="geometry" />
        </mxCell>
        <mxCell id="QbguWH6vcUpEMpohlRz4-32" value="" style="endArrow=none;html=1;rounded=0;exitX=1;exitY=0.3333333333333333;exitDx=0;exitDy=0;exitPerimeter=0;entryX=0;entryY=0.5;entryDx=0;entryDy=0;" parent="1" source="xt060wj-qjY4TburNqJA-20" target="QbguWH6vcUpEMpohlRz4-2" edge="1">
          <mxGeometry width="50" height="50" relative="1" as="geometry">
            <mxPoint x="190" y="490" as="sourcePoint" />
            <mxPoint x="240" y="440" as="targetPoint" />
          </mxGeometry>
        </mxCell>
        <mxCell id="QbguWH6vcUpEMpohlRz4-33" value="" style="endArrow=none;html=1;rounded=0;entryX=1;entryY=0.5;entryDx=0;entryDy=0;exitX=0;exitY=0.3333333333333333;exitDx=0;exitDy=0;exitPerimeter=0;" parent="1" source="xt060wj-qjY4TburNqJA-21" target="QbguWH6vcUpEMpohlRz4-2" edge="1">
          <mxGeometry width="50" height="50" relative="1" as="geometry">
            <mxPoint x="1420" y="340" as="sourcePoint" />
            <mxPoint x="930" y="250" as="targetPoint" />
          </mxGeometry>
        </mxCell>
        <mxCell id="QbguWH6vcUpEMpohlRz4-34" value="" style="endArrow=none;html=1;rounded=0;exitX=0;exitY=0.3333333333333333;exitDx=0;exitDy=0;exitPerimeter=0;entryX=1;entryY=0.5;entryDx=0;entryDy=0;" parent="1" source="xt060wj-qjY4TburNqJA-22" target="QbguWH6vcUpEMpohlRz4-2" edge="1">
          <mxGeometry width="50" height="50" relative="1" as="geometry">
            <mxPoint x="1350" y="610" as="sourcePoint" />
            <mxPoint x="1400" y="560" as="targetPoint" />
          </mxGeometry>
        </mxCell>
        <mxCell id="QbguWH6vcUpEMpohlRz4-35" value="" style="endArrow=none;html=1;rounded=0;exitX=1;exitY=0.3333333333333333;exitDx=0;exitDy=0;exitPerimeter=0;entryX=0;entryY=0.5;entryDx=0;entryDy=0;" parent="1" source="xt060wj-qjY4TburNqJA-20" target="QbguWH6vcUpEMpohlRz4-3" edge="1">
          <mxGeometry width="50" height="50" relative="1" as="geometry">
            <mxPoint x="150" y="430" as="sourcePoint" />
            <mxPoint x="200" y="380" as="targetPoint" />
          </mxGeometry>
        </mxCell>
        <mxCell id="QbguWH6vcUpEMpohlRz4-36" value="" style="endArrow=none;html=1;rounded=0;exitX=0;exitY=0.3333333333333333;exitDx=0;exitDy=0;exitPerimeter=0;entryX=1;entryY=0.5;entryDx=0;entryDy=0;" parent="1" source="xt060wj-qjY4TburNqJA-21" target="QbguWH6vcUpEMpohlRz4-3" edge="1">
          <mxGeometry width="50" height="50" relative="1" as="geometry">
            <mxPoint x="1430" y="350" as="sourcePoint" />
            <mxPoint x="1050" y="250" as="targetPoint" />
          </mxGeometry>
        </mxCell>
        <mxCell id="QbguWH6vcUpEMpohlRz4-37" value="" style="endArrow=none;html=1;rounded=0;exitX=0;exitY=0.3333333333333333;exitDx=0;exitDy=0;exitPerimeter=0;entryX=1;entryY=0.5;entryDx=0;entryDy=0;" parent="1" source="xt060wj-qjY4TburNqJA-22" target="QbguWH6vcUpEMpohlRz4-3" edge="1">
          <mxGeometry width="50" height="50" relative="1" as="geometry">
            <mxPoint x="1430" y="690" as="sourcePoint" />
            <mxPoint x="1050" y="250" as="targetPoint" />
          </mxGeometry>
        </mxCell>
        <mxCell id="QbguWH6vcUpEMpohlRz4-38" value="" style="endArrow=none;html=1;rounded=0;entryX=0;entryY=0.5;entryDx=0;entryDy=0;exitX=1;exitY=0.3333333333333333;exitDx=0;exitDy=0;exitPerimeter=0;" parent="1" source="xt060wj-qjY4TburNqJA-20" target="QbguWH6vcUpEMpohlRz4-4" edge="1">
          <mxGeometry width="50" height="50" relative="1" as="geometry">
            <mxPoint x="210" y="540" as="sourcePoint" />
            <mxPoint x="930" y="340" as="targetPoint" />
          </mxGeometry>
        </mxCell>
        <mxCell id="QbguWH6vcUpEMpohlRz4-39" value="" style="endArrow=none;html=1;rounded=0;entryX=1;entryY=0.5;entryDx=0;entryDy=0;exitX=0;exitY=0.3333333333333333;exitDx=0;exitDy=0;exitPerimeter=0;" parent="1" source="xt060wj-qjY4TburNqJA-21" target="QbguWH6vcUpEMpohlRz4-4" edge="1">
          <mxGeometry width="50" height="50" relative="1" as="geometry">
            <mxPoint x="1440" y="340" as="sourcePoint" />
            <mxPoint x="1049.965164658558" y="341.36284465133076" as="targetPoint" />
          </mxGeometry>
        </mxCell>
        <mxCell id="QbguWH6vcUpEMpohlRz4-40" value="" style="endArrow=none;html=1;rounded=0;entryX=1;entryY=0.5;entryDx=0;entryDy=0;exitX=0;exitY=0.3333333333333333;exitDx=0;exitDy=0;exitPerimeter=0;" parent="1" source="xt060wj-qjY4TburNqJA-22" target="QbguWH6vcUpEMpohlRz4-4" edge="1">
          <mxGeometry width="50" height="50" relative="1" as="geometry">
            <mxPoint x="1420" y="680" as="sourcePoint" />
            <mxPoint x="1050" y="250" as="targetPoint" />
          </mxGeometry>
        </mxCell>
        <mxCell id="QbguWH6vcUpEMpohlRz4-41" value="" style="endArrow=none;html=1;rounded=0;entryX=0;entryY=0.5;entryDx=0;entryDy=0;exitX=1;exitY=0.3333333333333333;exitDx=0;exitDy=0;exitPerimeter=0;" parent="1" source="xt060wj-qjY4TburNqJA-20" target="QbguWH6vcUpEMpohlRz4-5" edge="1">
          <mxGeometry width="50" height="50" relative="1" as="geometry">
            <mxPoint x="210" y="540" as="sourcePoint" />
            <mxPoint x="930" y="430" as="targetPoint" />
          </mxGeometry>
        </mxCell>
        <mxCell id="QbguWH6vcUpEMpohlRz4-42" value="" style="endArrow=none;html=1;rounded=0;entryX=1;entryY=0.5;entryDx=0;entryDy=0;exitX=0;exitY=0.3333333333333333;exitDx=0;exitDy=0;exitPerimeter=0;" parent="1" source="xt060wj-qjY4TburNqJA-21" target="QbguWH6vcUpEMpohlRz4-5" edge="1">
          <mxGeometry width="50" height="50" relative="1" as="geometry">
            <mxPoint x="1430" y="350" as="sourcePoint" />
            <mxPoint x="1050" y="430" as="targetPoint" />
          </mxGeometry>
        </mxCell>
        <mxCell id="QbguWH6vcUpEMpohlRz4-43" value="" style="endArrow=none;html=1;rounded=0;exitX=0;exitY=0.3333333333333333;exitDx=0;exitDy=0;exitPerimeter=0;entryX=1;entryY=0.5;entryDx=0;entryDy=0;" parent="1" source="xt060wj-qjY4TburNqJA-22" target="QbguWH6vcUpEMpohlRz4-5" edge="1">
          <mxGeometry width="50" height="50" relative="1" as="geometry">
            <mxPoint x="1430" y="690" as="sourcePoint" />
            <mxPoint x="1040" y="510" as="targetPoint" />
          </mxGeometry>
        </mxCell>
        <mxCell id="tjgMWZh8-_X_6OKFMfRl-1" value="" style="endArrow=none;html=1;rounded=0;exitX=1;exitY=0.3333333333333333;exitDx=0;exitDy=0;exitPerimeter=0;entryX=0;entryY=0.5;entryDx=0;entryDy=0;" parent="1" source="xt060wj-qjY4TburNqJA-20" target="QbguWH6vcUpEMpohlRz4-20" edge="1">
          <mxGeometry width="50" height="50" relative="1" as="geometry">
            <mxPoint x="100" y="430" as="sourcePoint" />
            <mxPoint x="150" y="380" as="targetPoint" />
          </mxGeometry>
        </mxCell>
        <mxCell id="tjgMWZh8-_X_6OKFMfRl-2" value="" style="endArrow=none;html=1;rounded=0;exitX=1;exitY=0.3333333333333333;exitDx=0;exitDy=0;exitPerimeter=0;entryX=0;entryY=0.5;entryDx=0;entryDy=0;" parent="1" source="xt060wj-qjY4TburNqJA-20" target="QbguWH6vcUpEMpohlRz4-15" edge="1">
          <mxGeometry width="50" height="50" relative="1" as="geometry">
            <mxPoint x="90" y="580" as="sourcePoint" />
            <mxPoint x="210" y="740" as="targetPoint" />
          </mxGeometry>
        </mxCell>
        <mxCell id="tjgMWZh8-_X_6OKFMfRl-3" value="" style="endArrow=none;html=1;rounded=0;entryX=0;entryY=0.5;entryDx=0;entryDy=0;exitX=1;exitY=0.3333333333333333;exitDx=0;exitDy=0;exitPerimeter=0;" parent="1" source="xt060wj-qjY4TburNqJA-20" target="QbguWH6vcUpEMpohlRz4-16" edge="1">
          <mxGeometry width="50" height="50" relative="1" as="geometry">
            <mxPoint x="70" y="510" as="sourcePoint" />
            <mxPoint x="390" y="790" as="targetPoint" />
          </mxGeometry>
        </mxCell>
        <mxCell id="tjgMWZh8-_X_6OKFMfRl-4" value="" style="endArrow=none;html=1;rounded=0;entryX=0;entryY=0.5;entryDx=0;entryDy=0;exitX=1;exitY=0.3333333333333333;exitDx=0;exitDy=0;exitPerimeter=0;" parent="1" source="xt060wj-qjY4TburNqJA-20" target="QbguWH6vcUpEMpohlRz4-18" edge="1">
          <mxGeometry width="50" height="50" relative="1" as="geometry">
            <mxPoint x="70" y="510" as="sourcePoint" />
            <mxPoint x="390" y="880" as="targetPoint" />
          </mxGeometry>
        </mxCell>
        <mxCell id="tjgMWZh8-_X_6OKFMfRl-5" value="" style="endArrow=none;html=1;rounded=0;entryX=0;entryY=0.5;entryDx=0;entryDy=0;exitX=1;exitY=0.3333333333333333;exitDx=0;exitDy=0;exitPerimeter=0;" parent="1" source="xt060wj-qjY4TburNqJA-20" target="QbguWH6vcUpEMpohlRz4-19" edge="1">
          <mxGeometry width="50" height="50" relative="1" as="geometry">
            <mxPoint x="70" y="510" as="sourcePoint" />
            <mxPoint x="390" y="970" as="targetPoint" />
          </mxGeometry>
        </mxCell>
        <mxCell id="tjgMWZh8-_X_6OKFMfRl-6" value="" style="endArrow=none;html=1;rounded=0;entryX=0;entryY=0.5;entryDx=0;entryDy=0;exitX=1;exitY=0.3333333333333333;exitDx=0;exitDy=0;exitPerimeter=0;" parent="1" source="xt060wj-qjY4TburNqJA-20" target="QbguWH6vcUpEMpohlRz4-17" edge="1">
          <mxGeometry width="50" height="50" relative="1" as="geometry">
            <mxPoint x="70" y="510" as="sourcePoint" />
            <mxPoint x="390" y="700" as="targetPoint" />
          </mxGeometry>
        </mxCell>
        <mxCell id="tjgMWZh8-_X_6OKFMfRl-8" value="" style="endArrow=none;html=1;rounded=0;entryX=0;entryY=0.5;entryDx=0;entryDy=0;exitX=1;exitY=0.3333333333333333;exitDx=0;exitDy=0;exitPerimeter=0;" parent="1" source="xt060wj-qjY4TburNqJA-20" target="QbguWH6vcUpEMpohlRz4-25" edge="1">
          <mxGeometry width="50" height="50" relative="1" as="geometry">
            <mxPoint x="80" y="160" as="sourcePoint" />
            <mxPoint x="930" y="450" as="targetPoint" />
          </mxGeometry>
        </mxCell>
        <mxCell id="tjgMWZh8-_X_6OKFMfRl-11" value="" style="endArrow=none;html=1;rounded=0;entryX=0;entryY=0.5;entryDx=0;entryDy=0;exitX=1;exitY=0.3333333333333333;exitDx=0;exitDy=0;exitPerimeter=0;" parent="1" source="xt060wj-qjY4TburNqJA-20" target="QbguWH6vcUpEMpohlRz4-26" edge="1">
          <mxGeometry width="50" height="50" relative="1" as="geometry">
            <mxPoint x="80" y="160" as="sourcePoint" />
            <mxPoint x="739.3600000000001" y="729.9200000000001" as="targetPoint" />
          </mxGeometry>
        </mxCell>
        <mxCell id="tjgMWZh8-_X_6OKFMfRl-13" value="" style="endArrow=none;html=1;rounded=0;entryX=0;entryY=0.5;entryDx=0;entryDy=0;exitX=1;exitY=0.3333333333333333;exitDx=0;exitDy=0;exitPerimeter=0;" parent="1" source="xt060wj-qjY4TburNqJA-20" target="QbguWH6vcUpEMpohlRz4-29" edge="1">
          <mxGeometry width="50" height="50" relative="1" as="geometry">
            <mxPoint x="80" y="160" as="sourcePoint" />
            <mxPoint x="610" y="660" as="targetPoint" />
          </mxGeometry>
        </mxCell>
        <mxCell id="tjgMWZh8-_X_6OKFMfRl-14" value="" style="endArrow=none;html=1;rounded=0;exitX=1;exitY=0.3333333333333333;exitDx=0;exitDy=0;exitPerimeter=0;entryX=0;entryY=0.5;entryDx=0;entryDy=0;" parent="1" source="xt060wj-qjY4TburNqJA-20" target="QbguWH6vcUpEMpohlRz4-21" edge="1">
          <mxGeometry width="50" height="50" relative="1" as="geometry">
            <mxPoint x="80" y="160" as="sourcePoint" />
            <mxPoint x="610" y="570" as="targetPoint" />
          </mxGeometry>
        </mxCell>
        <mxCell id="tjgMWZh8-_X_6OKFMfRl-15" value="" style="endArrow=none;html=1;rounded=0;exitX=1;exitY=0.3333333333333333;exitDx=0;exitDy=0;exitPerimeter=0;entryX=0;entryY=0.375;entryDx=0;entryDy=0;entryPerimeter=0;" parent="1" source="xt060wj-qjY4TburNqJA-20" target="QbguWH6vcUpEMpohlRz4-22" edge="1">
          <mxGeometry width="50" height="50" relative="1" as="geometry">
            <mxPoint x="80" y="160" as="sourcePoint" />
            <mxPoint x="850" y="530" as="targetPoint" />
          </mxGeometry>
        </mxCell>
        <mxCell id="tjgMWZh8-_X_6OKFMfRl-16" value="" style="endArrow=none;html=1;rounded=0;exitX=1;exitY=0.3333333333333333;exitDx=0;exitDy=0;exitPerimeter=0;entryX=0;entryY=0.5;entryDx=0;entryDy=0;" parent="1" source="xt060wj-qjY4TburNqJA-20" target="QbguWH6vcUpEMpohlRz4-24" edge="1">
          <mxGeometry width="50" height="50" relative="1" as="geometry">
            <mxPoint x="80" y="160" as="sourcePoint" />
            <mxPoint x="850" y="610" as="targetPoint" />
          </mxGeometry>
        </mxCell>
        <mxCell id="tjgMWZh8-_X_6OKFMfRl-17" value="" style="endArrow=none;html=1;rounded=0;exitX=1;exitY=0.3333333333333333;exitDx=0;exitDy=0;exitPerimeter=0;entryX=0;entryY=0.5;entryDx=0;entryDy=0;" parent="1" source="xt060wj-qjY4TburNqJA-20" target="QbguWH6vcUpEMpohlRz4-13" edge="1">
          <mxGeometry width="50" height="50" relative="1" as="geometry">
            <mxPoint x="80" y="160" as="sourcePoint" />
            <mxPoint x="650" y="530" as="targetPoint" />
          </mxGeometry>
        </mxCell>
        <mxCell id="tjgMWZh8-_X_6OKFMfRl-18" value="" style="endArrow=none;html=1;rounded=0;exitX=1;exitY=0.3333333333333333;exitDx=0;exitDy=0;exitPerimeter=0;entryX=0;entryY=0.5;entryDx=0;entryDy=0;" parent="1" source="xt060wj-qjY4TburNqJA-20" target="QbguWH6vcUpEMpohlRz4-14" edge="1">
          <mxGeometry width="50" height="50" relative="1" as="geometry">
            <mxPoint x="80" y="160" as="sourcePoint" />
            <mxPoint x="890" y="610" as="targetPoint" />
          </mxGeometry>
        </mxCell>
        <mxCell id="tjgMWZh8-_X_6OKFMfRl-19" value="" style="endArrow=none;html=1;rounded=0;exitX=1;exitY=0.3333333333333333;exitDx=0;exitDy=0;exitPerimeter=0;entryX=0;entryY=0.5;entryDx=0;entryDy=0;" parent="1" source="xt060wj-qjY4TburNqJA-20" target="QbguWH6vcUpEMpohlRz4-7" edge="1">
          <mxGeometry width="50" height="50" relative="1" as="geometry">
            <mxPoint x="80" y="160" as="sourcePoint" />
            <mxPoint x="650" y="560" as="targetPoint" />
          </mxGeometry>
        </mxCell>
        <mxCell id="tjgMWZh8-_X_6OKFMfRl-21" value="" style="endArrow=none;html=1;rounded=0;entryX=1;entryY=0.5;entryDx=0;entryDy=0;exitX=0;exitY=0.3333333333333333;exitDx=0;exitDy=0;exitPerimeter=0;" parent="1" source="xt060wj-qjY4TburNqJA-21" target="QbguWH6vcUpEMpohlRz4-7" edge="1">
          <mxGeometry width="50" height="50" relative="1" as="geometry">
            <mxPoint x="1859" y="170" as="sourcePoint" />
            <mxPoint x="300" y="420" as="targetPoint" />
          </mxGeometry>
        </mxCell>
        <mxCell id="tjgMWZh8-_X_6OKFMfRl-22" value="" style="endArrow=none;html=1;rounded=0;entryX=1;entryY=0.5;entryDx=0;entryDy=0;" parent="1" target="QbguWH6vcUpEMpohlRz4-13" edge="1">
          <mxGeometry width="50" height="50" relative="1" as="geometry">
            <mxPoint x="1850" y="140" as="sourcePoint" />
            <mxPoint x="770" y="490" as="targetPoint" />
          </mxGeometry>
        </mxCell>
        <mxCell id="tjgMWZh8-_X_6OKFMfRl-23" value="" style="endArrow=none;html=1;rounded=0;entryX=1;entryY=0.5;entryDx=0;entryDy=0;" parent="1" target="QbguWH6vcUpEMpohlRz4-14" edge="1">
          <mxGeometry width="50" height="50" relative="1" as="geometry">
            <mxPoint x="1850" y="140" as="sourcePoint" />
            <mxPoint x="770" y="580" as="targetPoint" />
          </mxGeometry>
        </mxCell>
        <mxCell id="tjgMWZh8-_X_6OKFMfRl-24" value="" style="endArrow=none;html=1;rounded=0;entryX=1;entryY=0.5;entryDx=0;entryDy=0;exitX=0;exitY=0.3333333333333333;exitDx=0;exitDy=0;exitPerimeter=0;" parent="1" source="xt060wj-qjY4TburNqJA-21" target="QbguWH6vcUpEMpohlRz4-21" edge="1">
          <mxGeometry width="50" height="50" relative="1" as="geometry">
            <mxPoint x="1850" y="160" as="sourcePoint" />
            <mxPoint x="610" y="730" as="targetPoint" />
          </mxGeometry>
        </mxCell>
        <mxCell id="tjgMWZh8-_X_6OKFMfRl-25" value="" style="endArrow=none;html=1;rounded=0;entryX=1;entryY=0.5;entryDx=0;entryDy=0;" parent="1" target="QbguWH6vcUpEMpohlRz4-22" edge="1">
          <mxGeometry width="50" height="50" relative="1" as="geometry">
            <mxPoint x="1850" y="140" as="sourcePoint" />
            <mxPoint x="610" y="820" as="targetPoint" />
          </mxGeometry>
        </mxCell>
        <mxCell id="tjgMWZh8-_X_6OKFMfRl-26" value="" style="endArrow=none;html=1;rounded=0;entryX=1;entryY=0.5;entryDx=0;entryDy=0;" parent="1" target="QbguWH6vcUpEMpohlRz4-24" edge="1">
          <mxGeometry width="50" height="50" relative="1" as="geometry">
            <mxPoint x="1850" y="140" as="sourcePoint" />
            <mxPoint x="610" y="910" as="targetPoint" />
          </mxGeometry>
        </mxCell>
        <mxCell id="tjgMWZh8-_X_6OKFMfRl-28" value="" style="endArrow=none;html=1;rounded=0;entryX=1;entryY=0.5;entryDx=0;entryDy=0;exitX=0;exitY=0.3333333333333333;exitDx=0;exitDy=0;exitPerimeter=0;" parent="1" source="xt060wj-qjY4TburNqJA-21" target="QbguWH6vcUpEMpohlRz4-27" edge="1">
          <mxGeometry width="50" height="50" relative="1" as="geometry">
            <mxPoint x="1850" y="160" as="sourcePoint" />
            <mxPoint x="610" y="1000" as="targetPoint" />
          </mxGeometry>
        </mxCell>
        <mxCell id="tjgMWZh8-_X_6OKFMfRl-29" value="" style="endArrow=none;html=1;rounded=0;entryX=1;entryY=0.5;entryDx=0;entryDy=0;" parent="1" target="QbguWH6vcUpEMpohlRz4-28" edge="1">
          <mxGeometry width="50" height="50" relative="1" as="geometry">
            <mxPoint x="1850" y="140" as="sourcePoint" />
            <mxPoint x="770" y="1030" as="targetPoint" />
          </mxGeometry>
        </mxCell>
        <mxCell id="tjgMWZh8-_X_6OKFMfRl-30" value="" style="endArrow=none;html=1;rounded=0;entryX=1;entryY=0.5;entryDx=0;entryDy=0;exitX=0;exitY=0.3333333333333333;exitDx=0;exitDy=0;exitPerimeter=0;" parent="1" source="xt060wj-qjY4TburNqJA-21" target="QbguWH6vcUpEMpohlRz4-23" edge="1">
          <mxGeometry width="50" height="50" relative="1" as="geometry">
            <mxPoint x="1860" y="170" as="sourcePoint" />
            <mxPoint x="770" y="1120" as="targetPoint" />
          </mxGeometry>
        </mxCell>
        <mxCell id="tjgMWZh8-_X_6OKFMfRl-31" value="" style="endArrow=none;html=1;rounded=0;entryX=0.983;entryY=0.396;entryDx=0;entryDy=0;exitX=0;exitY=0.3333333333333333;exitDx=0;exitDy=0;exitPerimeter=0;entryPerimeter=0;" parent="1" source="xt060wj-qjY4TburNqJA-22" target="QbguWH6vcUpEMpohlRz4-10" edge="1">
          <mxGeometry width="50" height="50" relative="1" as="geometry">
            <mxPoint x="1859" y="170" as="sourcePoint" />
            <mxPoint x="930" y="1090" as="targetPoint" />
          </mxGeometry>
        </mxCell>
        <mxCell id="tjgMWZh8-_X_6OKFMfRl-32" value="" style="endArrow=none;html=1;rounded=0;entryX=1;entryY=0.5;entryDx=0;entryDy=0;exitX=0;exitY=0.3333333333333333;exitDx=0;exitDy=0;exitPerimeter=0;" parent="1" source="xt060wj-qjY4TburNqJA-22" target="QbguWH6vcUpEMpohlRz4-11" edge="1">
          <mxGeometry width="50" height="50" relative="1" as="geometry">
            <mxPoint x="1859" y="390" as="sourcePoint" />
            <mxPoint x="1088" y="902" as="targetPoint" />
          </mxGeometry>
        </mxCell>
        <mxCell id="tjgMWZh8-_X_6OKFMfRl-33" value="" style="endArrow=none;html=1;rounded=0;entryX=1;entryY=0.5;entryDx=0;entryDy=0;" parent="1" target="QbguWH6vcUpEMpohlRz4-12" edge="1">
          <mxGeometry width="50" height="50" relative="1" as="geometry">
            <mxPoint x="1850" y="380" as="sourcePoint" />
            <mxPoint x="1090" y="1000" as="targetPoint" />
          </mxGeometry>
        </mxCell>
        <mxCell id="tjgMWZh8-_X_6OKFMfRl-34" value="" style="endArrow=none;html=1;rounded=0;entryX=1;entryY=0.5;entryDx=0;entryDy=0;exitX=0;exitY=0.3333333333333333;exitDx=0;exitDy=0;exitPerimeter=0;" parent="1" source="xt060wj-qjY4TburNqJA-22" target="QbguWH6vcUpEMpohlRz4-6" edge="1">
          <mxGeometry width="50" height="50" relative="1" as="geometry">
            <mxPoint x="1859" y="390" as="sourcePoint" />
            <mxPoint x="1088" y="902" as="targetPoint" />
          </mxGeometry>
        </mxCell>
        <mxCell id="tjgMWZh8-_X_6OKFMfRl-35" value="" style="endArrow=none;html=1;rounded=0;entryX=1;entryY=0.5;entryDx=0;entryDy=0;exitX=0;exitY=0.3333333333333333;exitDx=0;exitDy=0;exitPerimeter=0;" parent="1" source="xt060wj-qjY4TburNqJA-22" target="QbguWH6vcUpEMpohlRz4-8" edge="1">
          <mxGeometry width="50" height="50" relative="1" as="geometry">
            <mxPoint x="1859" y="390" as="sourcePoint" />
            <mxPoint x="1570" y="910" as="targetPoint" />
          </mxGeometry>
        </mxCell>
        <mxCell id="tjgMWZh8-_X_6OKFMfRl-36" value="" style="endArrow=none;html=1;rounded=0;entryX=1;entryY=0.5;entryDx=0;entryDy=0;exitX=0;exitY=0.3333333333333333;exitDx=0;exitDy=0;exitPerimeter=0;" parent="1" source="xt060wj-qjY4TburNqJA-22" target="QbguWH6vcUpEMpohlRz4-9" edge="1">
          <mxGeometry width="50" height="50" relative="1" as="geometry">
            <mxPoint x="1859" y="390" as="sourcePoint" />
            <mxPoint x="1570" y="1000" as="targetPoint" />
          </mxGeometry>
        </mxCell>
        <mxCell id="tjgMWZh8-_X_6OKFMfRl-37" value="" style="endArrow=none;html=1;rounded=0;exitX=0;exitY=0.3333333333333333;exitDx=0;exitDy=0;exitPerimeter=0;entryX=1;entryY=0.5;entryDx=0;entryDy=0;" parent="1" source="xt060wj-qjY4TburNqJA-22" target="QbguWH6vcUpEMpohlRz4-7" edge="1">
          <mxGeometry width="50" height="50" relative="1" as="geometry">
            <mxPoint x="1859" y="390" as="sourcePoint" />
            <mxPoint x="1630" y="640" as="targetPoint" />
          </mxGeometry>
        </mxCell>
        <mxCell id="tjgMWZh8-_X_6OKFMfRl-38" value="" style="endArrow=none;html=1;rounded=0;entryX=1;entryY=0.5;entryDx=0;entryDy=0;" parent="1" target="QbguWH6vcUpEMpohlRz4-13" edge="1">
          <mxGeometry width="50" height="50" relative="1" as="geometry">
            <mxPoint x="1850" y="380" as="sourcePoint" />
            <mxPoint x="910" y="550" as="targetPoint" />
          </mxGeometry>
        </mxCell>
        <mxCell id="tjgMWZh8-_X_6OKFMfRl-39" value="" style="endArrow=none;html=1;rounded=0;exitX=0;exitY=0.3333333333333333;exitDx=0;exitDy=0;exitPerimeter=0;entryX=1;entryY=0.5;entryDx=0;entryDy=0;" parent="1" source="xt060wj-qjY4TburNqJA-21" target="QbguWH6vcUpEMpohlRz4-25" edge="1">
          <mxGeometry width="50" height="50" relative="1" as="geometry">
            <mxPoint x="1850" y="340" as="sourcePoint" />
            <mxPoint x="660" y="900" as="targetPoint" />
          </mxGeometry>
        </mxCell>
        <mxCell id="tjgMWZh8-_X_6OKFMfRl-40" value="" style="endArrow=none;html=1;rounded=0;entryX=1;entryY=0.5;entryDx=0;entryDy=0;exitX=0;exitY=0.3333333333333333;exitDx=0;exitDy=0;exitPerimeter=0;" parent="1" source="xt060wj-qjY4TburNqJA-21" target="QbguWH6vcUpEMpohlRz4-26" edge="1">
          <mxGeometry width="50" height="50" relative="1" as="geometry">
            <mxPoint x="1859" y="170" as="sourcePoint" />
            <mxPoint x="670" y="900" as="targetPoint" />
          </mxGeometry>
        </mxCell>
        <mxCell id="tjgMWZh8-_X_6OKFMfRl-41" value="" style="endArrow=none;html=1;rounded=0;entryX=1;entryY=0.5;entryDx=0;entryDy=0;" parent="1" target="QbguWH6vcUpEMpohlRz4-14" edge="1">
          <mxGeometry width="50" height="50" relative="1" as="geometry">
            <mxPoint x="1850" y="380" as="sourcePoint" />
            <mxPoint x="910" y="550" as="targetPoint" />
          </mxGeometry>
        </mxCell>
        <mxCell id="tjgMWZh8-_X_6OKFMfRl-42" value="" style="endArrow=none;html=1;rounded=0;exitX=0;exitY=0.3333333333333333;exitDx=0;exitDy=0;exitPerimeter=0;entryX=1;entryY=0.5;entryDx=0;entryDy=0;" parent="1" source="xt060wj-qjY4TburNqJA-22" target="QbguWH6vcUpEMpohlRz4-21" edge="1">
          <mxGeometry width="50" height="50" relative="1" as="geometry">
            <mxPoint x="1860" y="390" as="sourcePoint" />
            <mxPoint x="910" y="640" as="targetPoint" />
          </mxGeometry>
        </mxCell>
        <mxCell id="tjgMWZh8-_X_6OKFMfRl-43" value="" style="endArrow=none;html=1;rounded=0;entryX=1;entryY=0.5;entryDx=0;entryDy=0;" parent="1" target="QbguWH6vcUpEMpohlRz4-22" edge="1">
          <mxGeometry width="50" height="50" relative="1" as="geometry">
            <mxPoint x="1850" y="380" as="sourcePoint" />
            <mxPoint x="910" y="730" as="targetPoint" />
          </mxGeometry>
        </mxCell>
        <mxCell id="tjgMWZh8-_X_6OKFMfRl-44" value="" style="endArrow=none;html=1;rounded=0;entryX=1;entryY=0.5;entryDx=0;entryDy=0;exitX=0;exitY=0.3333333333333333;exitDx=0;exitDy=0;exitPerimeter=0;" parent="1" source="xt060wj-qjY4TburNqJA-22" target="QbguWH6vcUpEMpohlRz4-24" edge="1">
          <mxGeometry width="50" height="50" relative="1" as="geometry">
            <mxPoint x="1860" y="390" as="sourcePoint" />
            <mxPoint x="910" y="820" as="targetPoint" />
          </mxGeometry>
        </mxCell>
        <mxCell id="tjgMWZh8-_X_6OKFMfRl-45" value="" style="endArrow=none;html=1;rounded=0;entryX=1;entryY=0.5;entryDx=0;entryDy=0;exitX=0;exitY=0.3333333333333333;exitDx=0;exitDy=0;exitPerimeter=0;" parent="1" source="xt060wj-qjY4TburNqJA-22" target="QbguWH6vcUpEMpohlRz4-27" edge="1">
          <mxGeometry width="50" height="50" relative="1" as="geometry">
            <mxPoint x="1859" y="390" as="sourcePoint" />
            <mxPoint x="910" y="910" as="targetPoint" />
          </mxGeometry>
        </mxCell>
        <mxCell id="tjgMWZh8-_X_6OKFMfRl-46" value="" style="endArrow=none;html=1;rounded=0;exitX=0;exitY=0.3333333333333333;exitDx=0;exitDy=0;exitPerimeter=0;" parent="1" source="xt060wj-qjY4TburNqJA-22" edge="1">
          <mxGeometry width="50" height="50" relative="1" as="geometry">
            <mxPoint x="1859" y="390" as="sourcePoint" />
            <mxPoint x="1140" y="1080" as="targetPoint" />
          </mxGeometry>
        </mxCell>
        <mxCell id="tjgMWZh8-_X_6OKFMfRl-47" value="" style="endArrow=none;html=1;rounded=0;exitX=0;exitY=0.3333333333333333;exitDx=0;exitDy=0;exitPerimeter=0;" parent="1" source="xt060wj-qjY4TburNqJA-22" edge="1">
          <mxGeometry width="50" height="50" relative="1" as="geometry">
            <mxPoint x="1859" y="170" as="sourcePoint" />
            <mxPoint x="1380" y="990" as="targetPoint" />
          </mxGeometry>
        </mxCell>
        <mxCell id="tjgMWZh8-_X_6OKFMfRl-48" value="" style="endArrow=none;html=1;rounded=0;exitX=0;exitY=0.3333333333333333;exitDx=0;exitDy=0;exitPerimeter=0;" parent="1" source="xt060wj-qjY4TburNqJA-22" edge="1">
          <mxGeometry width="50" height="50" relative="1" as="geometry">
            <mxPoint x="1859" y="170" as="sourcePoint" />
            <mxPoint x="660" y="900" as="targetPoint" />
          </mxGeometry>
        </mxCell>
        <mxCell id="tjgMWZh8-_X_6OKFMfRl-49" value="" style="endArrow=none;html=1;rounded=0;exitX=0;exitY=0.3333333333333333;exitDx=0;exitDy=0;exitPerimeter=0;entryX=1;entryY=0.5;entryDx=0;entryDy=0;" parent="1" source="xt060wj-qjY4TburNqJA-22" target="QbguWH6vcUpEMpohlRz4-26" edge="1">
          <mxGeometry width="50" height="50" relative="1" as="geometry">
            <mxPoint x="1859" y="390" as="sourcePoint" />
            <mxPoint x="670" y="910" as="targetPoint" />
          </mxGeometry>
        </mxCell>
        <mxCell id="tjgMWZh8-_X_6OKFMfRl-50" value="" style="endArrow=none;html=1;rounded=0;entryX=1;entryY=0.5;entryDx=0;entryDy=0;exitX=0;exitY=0.3333333333333333;exitDx=0;exitDy=0;exitPerimeter=0;" parent="1" source="xt060wj-qjY4TburNqJA-21" target="QbguWH6vcUpEMpohlRz4-29" edge="1">
          <mxGeometry width="50" height="50" relative="1" as="geometry">
            <mxPoint x="1859" y="390" as="sourcePoint" />
            <mxPoint x="910" y="910" as="targetPoint" />
          </mxGeometry>
        </mxCell>
        <mxCell id="tjgMWZh8-_X_6OKFMfRl-51" value="" style="endArrow=none;html=1;rounded=0;exitX=0;exitY=0.3333333333333333;exitDx=0;exitDy=0;exitPerimeter=0;" parent="1" source="xt060wj-qjY4TburNqJA-22" edge="1">
          <mxGeometry width="50" height="50" relative="1" as="geometry">
            <mxPoint x="1859" y="170" as="sourcePoint" />
            <mxPoint x="660" y="1080" as="targetPoint" />
          </mxGeometry>
        </mxCell>
        <mxCell id="zkOvGUWD8mynvcwF5hG_-2" value="" style="endArrow=none;html=1;rounded=0;entryX=0;entryY=0.5;entryDx=0;entryDy=0;" parent="1" target="zkOvGUWD8mynvcwF5hG_-1" edge="1">
          <mxGeometry width="50" height="50" relative="1" as="geometry">
            <mxPoint x="70" y="460" as="sourcePoint" />
            <mxPoint x="790" y="1000" as="targetPoint" />
          </mxGeometry>
        </mxCell>
        <mxCell id="zkOvGUWD8mynvcwF5hG_-3" value="" style="endArrow=none;html=1;rounded=0;entryX=1;entryY=0.5;entryDx=0;entryDy=0;" parent="1" target="zkOvGUWD8mynvcwF5hG_-1" edge="1">
          <mxGeometry width="50" height="50" relative="1" as="geometry">
            <mxPoint x="1850" y="380" as="sourcePoint" />
            <mxPoint x="910" y="1000" as="targetPoint" />
          </mxGeometry>
        </mxCell>
        <mxCell id="zkOvGUWD8mynvcwF5hG_-4" value="" style="endArrow=none;html=1;rounded=0;exitX=0;exitY=0.3333333333333333;exitDx=0;exitDy=0;exitPerimeter=0;" parent="1" source="xt060wj-qjY4TburNqJA-21" edge="1">
          <mxGeometry width="50" height="50" relative="1" as="geometry">
            <mxPoint x="1860" y="390" as="sourcePoint" />
            <mxPoint x="900" y="1080" as="targetPoint" />
          </mxGeometry>
        </mxCell>
        <mxCell id="VIYJG-TJrEjDD1v3pH2z-20" value="" style="endArrow=none;html=1;rounded=0;entryX=0;entryY=0.5;entryDx=0;entryDy=0;" parent="1" target="VIYJG-TJrEjDD1v3pH2z-16" edge="1">
          <mxGeometry width="50" height="50" relative="1" as="geometry">
            <mxPoint x="70" y="460" as="sourcePoint" />
            <mxPoint x="550" y="910" as="targetPoint" />
          </mxGeometry>
        </mxCell>
        <mxCell id="QbguWH6vcUpEMpohlRz4-15" value="Add Order Detail &lt;br&gt;to Cart" style="ellipse;whiteSpace=wrap;html=1;" parent="1" vertex="1">
          <mxGeometry x="300" y="770" width="120" height="80" as="geometry" />
        </mxCell>
        <mxCell id="QbguWH6vcUpEMpohlRz4-16" value="Update Order Detail in Cart" style="ellipse;whiteSpace=wrap;html=1;" parent="1" vertex="1">
          <mxGeometry x="300" y="860" width="120" height="80" as="geometry" />
        </mxCell>
        <mxCell id="QbguWH6vcUpEMpohlRz4-18" value="Delete Order Detail &lt;br&gt;in Cart" style="ellipse;whiteSpace=wrap;html=1;" parent="1" vertex="1">
          <mxGeometry x="300" y="950" width="120" height="80" as="geometry" />
        </mxCell>
        <mxCell id="QbguWH6vcUpEMpohlRz4-19" value="Checkout Cart" style="ellipse;whiteSpace=wrap;html=1;" parent="1" vertex="1">
          <mxGeometry x="300" y="1040" width="120" height="80" as="geometry" />
        </mxCell>
        <mxCell id="QbguWH6vcUpEMpohlRz4-20" value="Merge Local Cart" style="ellipse;whiteSpace=wrap;html=1;" parent="1" vertex="1">
          <mxGeometry x="300" y="680" width="120" height="80" as="geometry" />
        </mxCell>
        <mxCell id="VIYJG-TJrEjDD1v3pH2z-21" value="" style="endArrow=none;html=1;rounded=0;" parent="1" edge="1">
          <mxGeometry width="50" height="50" relative="1" as="geometry">
            <mxPoint x="1850" y="140" as="sourcePoint" />
            <mxPoint x="660" y="800" as="targetPoint" />
          </mxGeometry>
        </mxCell>
        <mxCell id="VIYJG-TJrEjDD1v3pH2z-16" value="View All Subscriptions" style="ellipse;whiteSpace=wrap;html=1;" parent="1" vertex="1">
          <mxGeometry x="540" y="770" width="120" height="80" as="geometry" />
        </mxCell>
        <mxCell id="QbguWH6vcUpEMpohlRz4-25" value="View All Active Subscriptions" style="ellipse;whiteSpace=wrap;html=1;" parent="1" vertex="1">
          <mxGeometry x="540" y="860" width="120" height="80" as="geometry" />
        </mxCell>
        <mxCell id="QbguWH6vcUpEMpohlRz4-26" value="View Subscription" style="ellipse;whiteSpace=wrap;html=1;" parent="1" vertex="1">
          <mxGeometry x="540" y="950" width="120" height="80" as="geometry" />
        </mxCell>
        <mxCell id="QbguWH6vcUpEMpohlRz4-29" value="Product Category Predict" style="ellipse;whiteSpace=wrap;html=1;" parent="1" vertex="1">
          <mxGeometry x="540" y="1040" width="120" height="80" as="geometry" />
        </mxCell>
        <mxCell id="QbguWH6vcUpEMpohlRz4-14" value="View All Products" style="ellipse;whiteSpace=wrap;html=1;" parent="1" vertex="1">
          <mxGeometry x="780" y="220" width="120" height="80" as="geometry" />
        </mxCell>
        <mxCell id="QbguWH6vcUpEMpohlRz4-21" value="View All Off Sale Products" style="ellipse;whiteSpace=wrap;html=1;" parent="1" vertex="1">
          <mxGeometry x="780" y="490" width="120" height="80" as="geometry" />
        </mxCell>
        <mxCell id="QbguWH6vcUpEMpohlRz4-22" value="View All Canceled Orders" style="ellipse;whiteSpace=wrap;html=1;" parent="1" vertex="1">
          <mxGeometry x="780" y="860" width="120" height="80" as="geometry" />
        </mxCell>
        <mxCell id="QbguWH6vcUpEMpohlRz4-24" value="View Order" style="ellipse;whiteSpace=wrap;html=1;" parent="1" vertex="1">
          <mxGeometry x="780" y="950" width="120" height="80" as="geometry" />
        </mxCell>
        <mxCell id="zkOvGUWD8mynvcwF5hG_-1" value="Cancel Order" style="ellipse;whiteSpace=wrap;html=1;" parent="1" vertex="1">
          <mxGeometry x="780" y="1040" width="120" height="80" as="geometry" />
        </mxCell>
        <mxCell id="VIYJG-TJrEjDD1v3pH2z-4" value="View All Product Categories" style="ellipse;whiteSpace=wrap;html=1;" parent="1" vertex="1">
          <mxGeometry x="780" y="-230" width="120" height="80" as="geometry" />
        </mxCell>
        <mxCell id="VIYJG-TJrEjDD1v3pH2z-5" value="Search" style="ellipse;whiteSpace=wrap;html=1;" parent="1" vertex="1">
          <mxGeometry x="780" y="-320" width="120" height="80" as="geometry" />
        </mxCell>
        <mxCell id="VIYJG-TJrEjDD1v3pH2z-8" value="View Product Category" style="ellipse;whiteSpace=wrap;html=1;" parent="1" vertex="1">
          <mxGeometry x="780" y="-140" width="120" height="80" as="geometry" />
        </mxCell>
        <mxCell id="VIYJG-TJrEjDD1v3pH2z-9" value="View All On Sale Products" style="ellipse;whiteSpace=wrap;html=1;" parent="1" vertex="1">
          <mxGeometry x="780" y="400" width="120" height="80" as="geometry" />
        </mxCell>
        <mxCell id="VIYJG-TJrEjDD1v3pH2z-10" value="View Product" style="ellipse;whiteSpace=wrap;html=1;" parent="1" vertex="1">
          <mxGeometry x="780" y="310" width="120" height="80" as="geometry" />
        </mxCell>
        <mxCell id="VIYJG-TJrEjDD1v3pH2z-13" value="View All Finished Orders" style="ellipse;whiteSpace=wrap;html=1;" parent="1" vertex="1">
          <mxGeometry x="780" y="770" width="120" height="80" as="geometry" />
        </mxCell>
        <mxCell id="VIYJG-TJrEjDD1v3pH2z-14" value="View All New Orders" style="ellipse;whiteSpace=wrap;html=1;" parent="1" vertex="1">
          <mxGeometry x="780" y="680" width="120" height="80" as="geometry" />
        </mxCell>
        <mxCell id="VIYJG-TJrEjDD1v3pH2z-15" value="View All Orders" style="ellipse;whiteSpace=wrap;html=1;" parent="1" vertex="1">
          <mxGeometry x="780" y="590" width="120" height="80" as="geometry" />
        </mxCell>
        <mxCell id="QbguWH6vcUpEMpohlRz4-27" value="Update Subscription" style="ellipse;whiteSpace=wrap;html=1;" parent="1" vertex="1">
          <mxGeometry x="1020" y="950" width="120" height="80" as="geometry" />
        </mxCell>
        <mxCell id="QbguWH6vcUpEMpohlRz4-28" value="Delete Subscription" style="ellipse;whiteSpace=wrap;html=1;" parent="1" vertex="1">
          <mxGeometry x="1020" y="1040" width="120" height="80" as="geometry" />
        </mxCell>
        <mxCell id="QbguWH6vcUpEMpohlRz4-23" value="Off Sale Product" style="ellipse;whiteSpace=wrap;html=1;" parent="1" vertex="1">
          <mxGeometry x="1260" y="950" width="120" height="80" as="geometry" />
        </mxCell>
        <mxCell id="VIYJG-TJrEjDD1v3pH2z-17" value="Finish Order" style="ellipse;whiteSpace=wrap;html=1;" parent="1" vertex="1">
          <mxGeometry x="1260" y="1040" width="120" height="80" as="geometry" />
        </mxCell>
        <mxCell id="VIYJG-TJrEjDD1v3pH2z-18" value="On Sale Product" style="ellipse;whiteSpace=wrap;html=1;" parent="1" vertex="1">
          <mxGeometry x="1260" y="860" width="120" height="80" as="geometry" />
        </mxCell>
        <mxCell id="QbguWH6vcUpEMpohlRz4-8" value="Update Product Category" style="ellipse;whiteSpace=wrap;html=1;" parent="1" vertex="1">
          <mxGeometry x="1260" y="680" width="120" height="80" as="geometry" />
        </mxCell>
        <mxCell id="QbguWH6vcUpEMpohlRz4-10" value="Create Product" style="ellipse;whiteSpace=wrap;html=1;" parent="1" vertex="1">
          <mxGeometry x="1500" y="950" width="120" height="80" as="geometry" />
        </mxCell>
        <mxCell id="QbguWH6vcUpEMpohlRz4-11" value="Update Product" style="ellipse;whiteSpace=wrap;html=1;" parent="1" vertex="1">
          <mxGeometry x="1260" y="770" width="120" height="80" as="geometry" />
        </mxCell>
        <mxCell id="QbguWH6vcUpEMpohlRz4-12" value="Delete Product" style="ellipse;whiteSpace=wrap;html=1;" parent="1" vertex="1">
          <mxGeometry x="1500" y="1040" width="120" height="80" as="geometry" />
        </mxCell>
        <mxCell id="VIYJG-TJrEjDD1v3pH2z-25" value="" style="endArrow=none;html=1;rounded=0;entryX=1;entryY=0.5;entryDx=0;entryDy=0;exitX=0;exitY=0.3333333333333333;exitDx=0;exitDy=0;exitPerimeter=0;" parent="1" source="xt060wj-qjY4TburNqJA-21" target="VIYJG-TJrEjDD1v3pH2z-13" edge="1">
          <mxGeometry width="50" height="50" relative="1" as="geometry">
            <mxPoint x="1860" y="390" as="sourcePoint" />
            <mxPoint x="910" y="820" as="targetPoint" />
          </mxGeometry>
        </mxCell>
        <mxCell id="VIYJG-TJrEjDD1v3pH2z-26" value="" style="endArrow=none;html=1;rounded=0;entryX=1;entryY=0.5;entryDx=0;entryDy=0;" parent="1" target="VIYJG-TJrEjDD1v3pH2z-14" edge="1">
          <mxGeometry width="50" height="50" relative="1" as="geometry">
            <mxPoint x="1850" y="380" as="sourcePoint" />
            <mxPoint x="671" y="809" as="targetPoint" />
          </mxGeometry>
        </mxCell>
        <mxCell id="VIYJG-TJrEjDD1v3pH2z-27" value="" style="endArrow=none;html=1;rounded=0;entryX=1;entryY=0.5;entryDx=0;entryDy=0;" parent="1" target="VIYJG-TJrEjDD1v3pH2z-14" edge="1">
          <mxGeometry width="50" height="50" relative="1" as="geometry">
            <mxPoint x="1850" y="140" as="sourcePoint" />
            <mxPoint x="910" y="730" as="targetPoint" />
          </mxGeometry>
        </mxCell>
        <mxCell id="VIYJG-TJrEjDD1v3pH2z-30" value="" style="endArrow=none;html=1;rounded=0;entryX=1;entryY=0.5;entryDx=0;entryDy=0;exitX=0;exitY=0.3333333333333333;exitDx=0;exitDy=0;exitPerimeter=0;" parent="1" source="xt060wj-qjY4TburNqJA-22" target="VIYJG-TJrEjDD1v3pH2z-15" edge="1">
          <mxGeometry width="50" height="50" relative="1" as="geometry">
            <mxPoint x="1860" y="150" as="sourcePoint" />
            <mxPoint x="670" y="810" as="targetPoint" />
          </mxGeometry>
        </mxCell>
        <mxCell id="VIYJG-TJrEjDD1v3pH2z-31" value="" style="endArrow=none;html=1;rounded=0;entryX=1;entryY=0.5;entryDx=0;entryDy=0;exitX=0;exitY=0.3333333333333333;exitDx=0;exitDy=0;exitPerimeter=0;" parent="1" source="xt060wj-qjY4TburNqJA-21" target="VIYJG-TJrEjDD1v3pH2z-15" edge="1">
          <mxGeometry width="50" height="50" relative="1" as="geometry">
            <mxPoint x="1859" y="390" as="sourcePoint" />
            <mxPoint x="910" y="640" as="targetPoint" />
          </mxGeometry>
        </mxCell>
        <mxCell id="VIYJG-TJrEjDD1v3pH2z-32" value="" style="endArrow=none;html=1;rounded=0;entryX=1;entryY=0.5;entryDx=0;entryDy=0;" parent="1" target="VIYJG-TJrEjDD1v3pH2z-9" edge="1">
          <mxGeometry width="50" height="50" relative="1" as="geometry">
            <mxPoint x="1850" y="140" as="sourcePoint" />
            <mxPoint x="910" y="550" as="targetPoint" />
          </mxGeometry>
        </mxCell>
        <mxCell id="VIYJG-TJrEjDD1v3pH2z-33" value="" style="endArrow=none;html=1;rounded=0;entryX=1;entryY=0.5;entryDx=0;entryDy=0;" parent="1" target="VIYJG-TJrEjDD1v3pH2z-9" edge="1">
          <mxGeometry width="50" height="50" relative="1" as="geometry">
            <mxPoint x="1850" y="380" as="sourcePoint" />
            <mxPoint x="910" y="460" as="targetPoint" />
          </mxGeometry>
        </mxCell>
        <mxCell id="VIYJG-TJrEjDD1v3pH2z-34" value="" style="endArrow=none;html=1;rounded=0;entryX=1;entryY=0.5;entryDx=0;entryDy=0;" parent="1" target="VIYJG-TJrEjDD1v3pH2z-10" edge="1">
          <mxGeometry width="50" height="50" relative="1" as="geometry">
            <mxPoint x="1850" y="380" as="sourcePoint" />
            <mxPoint x="910" y="460" as="targetPoint" />
          </mxGeometry>
        </mxCell>
        <mxCell id="VIYJG-TJrEjDD1v3pH2z-35" value="" style="endArrow=none;html=1;rounded=0;entryX=1;entryY=0.5;entryDx=0;entryDy=0;" parent="1" target="VIYJG-TJrEjDD1v3pH2z-10" edge="1">
          <mxGeometry width="50" height="50" relative="1" as="geometry">
            <mxPoint x="1850" y="140" as="sourcePoint" />
            <mxPoint x="910" y="370" as="targetPoint" />
          </mxGeometry>
        </mxCell>
        <mxCell id="VIYJG-TJrEjDD1v3pH2z-36" value="" style="endArrow=none;html=1;rounded=0;entryX=0;entryY=0.5;entryDx=0;entryDy=0;" parent="1" target="VIYJG-TJrEjDD1v3pH2z-13" edge="1">
          <mxGeometry width="50" height="50" relative="1" as="geometry">
            <mxPoint x="70" y="460" as="sourcePoint" />
            <mxPoint x="790" y="900" as="targetPoint" />
          </mxGeometry>
        </mxCell>
        <mxCell id="VIYJG-TJrEjDD1v3pH2z-37" value="" style="endArrow=none;html=1;rounded=0;entryX=0;entryY=0.5;entryDx=0;entryDy=0;" parent="1" target="VIYJG-TJrEjDD1v3pH2z-14" edge="1">
          <mxGeometry width="50" height="50" relative="1" as="geometry">
            <mxPoint x="70" y="460" as="sourcePoint" />
            <mxPoint x="790" y="820" as="targetPoint" />
          </mxGeometry>
        </mxCell>
        <mxCell id="VIYJG-TJrEjDD1v3pH2z-38" value="" style="endArrow=none;html=1;rounded=0;entryX=0;entryY=0.5;entryDx=0;entryDy=0;" parent="1" target="VIYJG-TJrEjDD1v3pH2z-15" edge="1">
          <mxGeometry width="50" height="50" relative="1" as="geometry">
            <mxPoint x="70" y="460" as="sourcePoint" />
            <mxPoint x="790" y="730" as="targetPoint" />
          </mxGeometry>
        </mxCell>
        <mxCell id="VIYJG-TJrEjDD1v3pH2z-39" value="" style="endArrow=none;html=1;rounded=0;" parent="1" target="VIYJG-TJrEjDD1v3pH2z-9" edge="1">
          <mxGeometry width="50" height="50" relative="1" as="geometry">
            <mxPoint x="70" y="460" as="sourcePoint" />
            <mxPoint x="790" y="640" as="targetPoint" />
          </mxGeometry>
        </mxCell>
        <mxCell id="VIYJG-TJrEjDD1v3pH2z-40" value="" style="endArrow=none;html=1;rounded=0;entryX=0.021;entryY=0.588;entryDx=0;entryDy=0;entryPerimeter=0;" parent="1" target="VIYJG-TJrEjDD1v3pH2z-10" edge="1">
          <mxGeometry width="50" height="50" relative="1" as="geometry">
            <mxPoint x="70" y="460" as="sourcePoint" />
            <mxPoint x="790" y="461" as="targetPoint" />
          </mxGeometry>
        </mxCell>
        <mxCell id="VIYJG-TJrEjDD1v3pH2z-41" value="" style="endArrow=none;html=1;rounded=0;entryX=0.776;entryY=0.95;entryDx=0;entryDy=0;entryPerimeter=0;startArrow=none;" parent="1" target="tjgMWZh8-_X_6OKFMfRl-12" edge="1">
          <mxGeometry width="50" height="50" relative="1" as="geometry">
            <mxPoint x="1850" y="380" as="sourcePoint" />
            <mxPoint x="1390" y="1000" as="targetPoint" />
          </mxGeometry>
        </mxCell>
        <mxCell id="VIYJG-TJrEjDD1v3pH2z-42" value="" style="endArrow=none;html=1;rounded=0;entryX=1;entryY=0.5;entryDx=0;entryDy=0;exitX=0;exitY=0.3333333333333333;exitDx=0;exitDy=0;exitPerimeter=0;" parent="1" source="xt060wj-qjY4TburNqJA-22" target="VIYJG-TJrEjDD1v3pH2z-18" edge="1">
          <mxGeometry width="50" height="50" relative="1" as="geometry">
            <mxPoint x="1860" y="390" as="sourcePoint" />
            <mxPoint x="1390" y="1090" as="targetPoint" />
          </mxGeometry>
        </mxCell>
        <mxCell id="VIYJG-TJrEjDD1v3pH2z-43" value="" style="endArrow=none;html=1;rounded=0;entryX=1;entryY=0.5;entryDx=0;entryDy=0;" parent="1" target="VIYJG-TJrEjDD1v3pH2z-17" edge="1">
          <mxGeometry width="50" height="50" relative="1" as="geometry">
            <mxPoint x="1850" y="140" as="sourcePoint" />
            <mxPoint x="1390" y="1000" as="targetPoint" />
          </mxGeometry>
        </mxCell>
        <mxCell id="VIYJG-TJrEjDD1v3pH2z-44" value="" style="endArrow=none;html=1;rounded=0;entryX=1;entryY=0.5;entryDx=0;entryDy=0;exitX=0;exitY=0.3333333333333333;exitDx=0;exitDy=0;exitPerimeter=0;" parent="1" source="xt060wj-qjY4TburNqJA-21" target="VIYJG-TJrEjDD1v3pH2z-18" edge="1">
          <mxGeometry width="50" height="50" relative="1" as="geometry">
            <mxPoint x="1860" y="150" as="sourcePoint" />
            <mxPoint x="1390" y="1090" as="targetPoint" />
          </mxGeometry>
        </mxCell>
        <mxCell id="QbguWH6vcUpEMpohlRz4-6" value="Create Product Category" style="ellipse;whiteSpace=wrap;html=1;" parent="1" vertex="1">
          <mxGeometry x="1500" y="770" width="120" height="80" as="geometry" />
        </mxCell>
        <mxCell id="QbguWH6vcUpEMpohlRz4-9" value="Delete Product Category" style="ellipse;whiteSpace=wrap;html=1;" parent="1" vertex="1">
          <mxGeometry x="1500" y="860" width="120" height="80" as="geometry" />
        </mxCell>
        <mxCell id="VIYJG-TJrEjDD1v3pH2z-46" value="" style="endArrow=none;html=1;rounded=0;entryX=1;entryY=0.5;entryDx=0;entryDy=0;exitX=0;exitY=0.3333333333333333;exitDx=0;exitDy=0;exitPerimeter=0;" parent="1" source="xt060wj-qjY4TburNqJA-21" target="QbguWH6vcUpEMpohlRz4-8" edge="1">
          <mxGeometry width="50" height="50" relative="1" as="geometry">
            <mxPoint x="1859" y="150" as="sourcePoint" />
            <mxPoint x="1150" y="1000" as="targetPoint" />
          </mxGeometry>
        </mxCell>
        <mxCell id="VIYJG-TJrEjDD1v3pH2z-47" value="" style="endArrow=none;html=1;rounded=0;exitX=0;exitY=0.3333333333333333;exitDx=0;exitDy=0;exitPerimeter=0;" parent="1" source="xt060wj-qjY4TburNqJA-21" edge="1">
          <mxGeometry width="50" height="50" relative="1" as="geometry">
            <mxPoint x="1859" y="150" as="sourcePoint" />
            <mxPoint x="1380" y="810" as="targetPoint" />
          </mxGeometry>
        </mxCell>
        <mxCell id="VIYJG-TJrEjDD1v3pH2z-48" value="" style="endArrow=none;html=1;rounded=0;entryX=0;entryY=0.5;entryDx=0;entryDy=0;" parent="1" target="VIYJG-TJrEjDD1v3pH2z-7" edge="1">
          <mxGeometry width="50" height="50" relative="1" as="geometry">
            <mxPoint x="70" y="460" as="sourcePoint" />
            <mxPoint x="790" y="100" as="targetPoint" />
          </mxGeometry>
        </mxCell>
        <mxCell id="VIYJG-TJrEjDD1v3pH2z-49" value="" style="endArrow=none;html=1;rounded=0;entryX=0;entryY=0.5;entryDx=0;entryDy=0;" parent="1" target="VIYJG-TJrEjDD1v3pH2z-8" edge="1">
          <mxGeometry width="50" height="50" relative="1" as="geometry">
            <mxPoint x="70" y="460" as="sourcePoint" />
            <mxPoint x="790" y="10" as="targetPoint" />
          </mxGeometry>
        </mxCell>
        <mxCell id="VIYJG-TJrEjDD1v3pH2z-50" value="" style="endArrow=none;html=1;rounded=0;entryX=0;entryY=0.5;entryDx=0;entryDy=0;" parent="1" target="VIYJG-TJrEjDD1v3pH2z-4" edge="1">
          <mxGeometry width="50" height="50" relative="1" as="geometry">
            <mxPoint x="70" y="460" as="sourcePoint" />
            <mxPoint x="790" y="-80" as="targetPoint" />
          </mxGeometry>
        </mxCell>
        <mxCell id="VIYJG-TJrEjDD1v3pH2z-51" value="" style="endArrow=none;html=1;rounded=0;entryX=0;entryY=0.5;entryDx=0;entryDy=0;" parent="1" target="VIYJG-TJrEjDD1v3pH2z-5" edge="1">
          <mxGeometry width="50" height="50" relative="1" as="geometry">
            <mxPoint x="70" y="460" as="sourcePoint" />
            <mxPoint x="790" y="-170" as="targetPoint" />
          </mxGeometry>
        </mxCell>
        <mxCell id="VIYJG-TJrEjDD1v3pH2z-52" value="" style="endArrow=none;html=1;rounded=0;entryX=0;entryY=0.5;entryDx=0;entryDy=0;" parent="1" target="VIYJG-TJrEjDD1v3pH2z-2" edge="1">
          <mxGeometry width="50" height="50" relative="1" as="geometry">
            <mxPoint x="70" y="460" as="sourcePoint" />
            <mxPoint x="790" y="-260" as="targetPoint" />
          </mxGeometry>
        </mxCell>
        <mxCell id="VIYJG-TJrEjDD1v3pH2z-53" value="" style="endArrow=none;html=1;rounded=0;entryX=0;entryY=0.5;entryDx=0;entryDy=0;" parent="1" target="VIYJG-TJrEjDD1v3pH2z-3" edge="1">
          <mxGeometry width="50" height="50" relative="1" as="geometry">
            <mxPoint x="70" y="460" as="sourcePoint" />
            <mxPoint x="310" y="100" as="targetPoint" />
          </mxGeometry>
        </mxCell>
        <mxCell id="VIYJG-TJrEjDD1v3pH2z-54" value="" style="endArrow=none;html=1;rounded=0;entryX=1;entryY=0.5;entryDx=0;entryDy=0;exitX=0;exitY=0.3333333333333333;exitDx=0;exitDy=0;exitPerimeter=0;" parent="1" source="xt060wj-qjY4TburNqJA-21" target="VIYJG-TJrEjDD1v3pH2z-2" edge="1">
          <mxGeometry width="50" height="50" relative="1" as="geometry">
            <mxPoint x="1859" y="150" as="sourcePoint" />
            <mxPoint x="910" y="100" as="targetPoint" />
          </mxGeometry>
        </mxCell>
        <mxCell id="VIYJG-TJrEjDD1v3pH2z-55" value="" style="endArrow=none;html=1;rounded=0;entryX=1;entryY=0.5;entryDx=0;entryDy=0;" parent="1" target="VIYJG-TJrEjDD1v3pH2z-3" edge="1">
          <mxGeometry width="50" height="50" relative="1" as="geometry">
            <mxPoint x="1850" y="140" as="sourcePoint" />
            <mxPoint x="430" y="100" as="targetPoint" />
          </mxGeometry>
        </mxCell>
        <mxCell id="VIYJG-TJrEjDD1v3pH2z-56" value="" style="endArrow=none;html=1;rounded=0;entryX=1;entryY=0.5;entryDx=0;entryDy=0;" parent="1" target="VIYJG-TJrEjDD1v3pH2z-2" edge="1">
          <mxGeometry width="50" height="50" relative="1" as="geometry">
            <mxPoint x="1850" y="380" as="sourcePoint" />
            <mxPoint x="430" y="10" as="targetPoint" />
          </mxGeometry>
        </mxCell>
        <mxCell id="VIYJG-TJrEjDD1v3pH2z-57" value="" style="endArrow=none;html=1;rounded=0;" parent="1" edge="1">
          <mxGeometry width="50" height="50" relative="1" as="geometry">
            <mxPoint x="1850" y="380" as="sourcePoint" />
            <mxPoint x="420" as="targetPoint" />
          </mxGeometry>
        </mxCell>
        <mxCell id="QbguWH6vcUpEMpohlRz4-2" value="View Profile" style="ellipse;whiteSpace=wrap;html=1;" parent="1" vertex="1">
          <mxGeometry x="300" y="140" width="120" height="80" as="geometry" />
        </mxCell>
        <mxCell id="QbguWH6vcUpEMpohlRz4-3" value="Update Profile" style="ellipse;whiteSpace=wrap;html=1;" parent="1" vertex="1">
          <mxGeometry x="300" y="230" width="120" height="80" as="geometry" />
        </mxCell>
        <mxCell id="QbguWH6vcUpEMpohlRz4-4" value="Recover" style="ellipse;whiteSpace=wrap;html=1;" parent="1" vertex="1">
          <mxGeometry x="300" y="320" width="120" height="80" as="geometry" />
        </mxCell>
        <mxCell id="QbguWH6vcUpEMpohlRz4-5" value="Deactivate" style="ellipse;whiteSpace=wrap;html=1;" parent="1" vertex="1">
          <mxGeometry x="300" y="410" width="120" height="80" as="geometry" />
        </mxCell>
        <mxCell id="VIYJG-TJrEjDD1v3pH2z-2" value="Login" style="ellipse;whiteSpace=wrap;html=1;" parent="1" vertex="1">
          <mxGeometry x="300" y="50" width="120" height="80" as="geometry" />
        </mxCell>
        <mxCell id="VIYJG-TJrEjDD1v3pH2z-3" value="Register" style="ellipse;whiteSpace=wrap;html=1;" parent="1" vertex="1">
          <mxGeometry x="300" y="-40" width="120" height="80" as="geometry" />
        </mxCell>
        <mxCell id="VIYJG-TJrEjDD1v3pH2z-58" value="" style="endArrow=none;html=1;rounded=0;entryX=1;entryY=0.5;entryDx=0;entryDy=0;" parent="1" target="VIYJG-TJrEjDD1v3pH2z-7" edge="1">
          <mxGeometry width="50" height="50" relative="1" as="geometry">
            <mxPoint x="1850" y="380" as="sourcePoint" />
            <mxPoint x="430" y="10" as="targetPoint" />
          </mxGeometry>
        </mxCell>
        <mxCell id="VIYJG-TJrEjDD1v3pH2z-59" value="" style="endArrow=none;html=1;rounded=0;entryX=1;entryY=0.5;entryDx=0;entryDy=0;" parent="1" target="VIYJG-TJrEjDD1v3pH2z-8" edge="1">
          <mxGeometry width="50" height="50" relative="1" as="geometry">
            <mxPoint x="1850" y="380" as="sourcePoint" />
            <mxPoint x="910" y="10" as="targetPoint" />
          </mxGeometry>
        </mxCell>
        <mxCell id="VIYJG-TJrEjDD1v3pH2z-60" value="" style="endArrow=none;html=1;rounded=0;entryX=1;entryY=0.5;entryDx=0;entryDy=0;" parent="1" target="VIYJG-TJrEjDD1v3pH2z-4" edge="1">
          <mxGeometry width="50" height="50" relative="1" as="geometry">
            <mxPoint x="1850" y="380" as="sourcePoint" />
            <mxPoint x="910" y="-80" as="targetPoint" />
          </mxGeometry>
        </mxCell>
        <mxCell id="VIYJG-TJrEjDD1v3pH2z-61" value="" style="endArrow=none;html=1;rounded=0;entryX=1;entryY=0.5;entryDx=0;entryDy=0;" parent="1" target="VIYJG-TJrEjDD1v3pH2z-5" edge="1">
          <mxGeometry width="50" height="50" relative="1" as="geometry">
            <mxPoint x="1850" y="380" as="sourcePoint" />
            <mxPoint x="910" y="-170" as="targetPoint" />
          </mxGeometry>
        </mxCell>
        <mxCell id="VIYJG-TJrEjDD1v3pH2z-62" value="" style="endArrow=none;html=1;rounded=0;entryX=1;entryY=0.5;entryDx=0;entryDy=0;" parent="1" target="VIYJG-TJrEjDD1v3pH2z-8" edge="1">
          <mxGeometry width="50" height="50" relative="1" as="geometry">
            <mxPoint x="1850" y="140" as="sourcePoint" />
            <mxPoint x="910" y="-260" as="targetPoint" />
          </mxGeometry>
        </mxCell>
        <mxCell id="VIYJG-TJrEjDD1v3pH2z-63" value="" style="endArrow=none;html=1;rounded=0;" parent="1" edge="1">
          <mxGeometry width="50" height="50" relative="1" as="geometry">
            <mxPoint x="1850" y="140" as="sourcePoint" />
            <mxPoint x="900" y="-10" as="targetPoint" />
          </mxGeometry>
        </mxCell>
        <mxCell id="VIYJG-TJrEjDD1v3pH2z-64" value="" style="endArrow=none;html=1;rounded=0;exitX=0;exitY=0.3333333333333333;exitDx=0;exitDy=0;exitPerimeter=0;" parent="1" source="xt060wj-qjY4TburNqJA-21" edge="1">
          <mxGeometry width="50" height="50" relative="1" as="geometry">
            <mxPoint x="1860" y="150" as="sourcePoint" />
            <mxPoint x="900" y="-190" as="targetPoint" />
          </mxGeometry>
        </mxCell>
        <mxCell id="VIYJG-TJrEjDD1v3pH2z-65" value="" style="endArrow=none;html=1;rounded=0;entryX=1;entryY=0.5;entryDx=0;entryDy=0;" parent="1" target="VIYJG-TJrEjDD1v3pH2z-5" edge="1">
          <mxGeometry width="50" height="50" relative="1" as="geometry">
            <mxPoint x="1850" y="140" as="sourcePoint" />
            <mxPoint x="910" y="-170" as="targetPoint" />
          </mxGeometry>
        </mxCell>
        <mxCell id="VIYJG-TJrEjDD1v3pH2z-67" value="" style="rounded=1;whiteSpace=wrap;html=1;fillColor=#f8cecc;strokeColor=#b85450;opacity=50;" parent="1" vertex="1">
          <mxGeometry x="1360" y="-311" width="80" height="40" as="geometry" />
        </mxCell>
        <mxCell id="VIYJG-TJrEjDD1v3pH2z-68" value="Manager and Employee Access" style="text;strokeColor=none;fillColor=none;align=left;verticalAlign=middle;spacingLeft=4;spacingRight=4;overflow=hidden;points=[[0,0.5],[1,0.5]];portConstraint=eastwest;rotatable=0;whiteSpace=wrap;html=1;" parent="1" vertex="1">
          <mxGeometry x="1460" y="-311" width="140" height="30" as="geometry" />
        </mxCell>
        <mxCell id="VIYJG-TJrEjDD1v3pH2z-69" value="Customer Access" style="text;strokeColor=none;fillColor=none;align=left;verticalAlign=middle;spacingLeft=4;spacingRight=4;overflow=hidden;points=[[0,0.5],[1,0.5]];portConstraint=eastwest;rotatable=0;whiteSpace=wrap;html=1;" parent="1" vertex="1">
          <mxGeometry x="1460" y="-251" width="140" height="30" as="geometry" />
        </mxCell>
        <mxCell id="VIYJG-TJrEjDD1v3pH2z-70" value="" style="rounded=1;whiteSpace=wrap;html=1;fillColor=#fff2cc;strokeColor=#d6b656;opacity=50;" parent="1" vertex="1">
          <mxGeometry x="1360" y="-251" width="80" height="40" as="geometry" />
        </mxCell>
        <mxCell id="VIYJG-TJrEjDD1v3pH2z-71" value="" style="rounded=1;whiteSpace=wrap;html=1;fillColor=#d5e8d4;strokeColor=#82b366;opacity=50;" parent="1" vertex="1">
          <mxGeometry x="1360" y="-191" width="80" height="40" as="geometry" />
        </mxCell>
        <mxCell id="VIYJG-TJrEjDD1v3pH2z-72" value="Authenticated Access" style="text;strokeColor=none;fillColor=none;align=left;verticalAlign=middle;spacingLeft=4;spacingRight=4;overflow=hidden;points=[[0,0.5],[1,0.5]];portConstraint=eastwest;rotatable=0;whiteSpace=wrap;html=1;" parent="1" vertex="1">
          <mxGeometry x="1460" y="-191" width="140" height="30" as="geometry" />
        </mxCell>
        <mxCell id="VIYJG-TJrEjDD1v3pH2z-73" value="" style="rounded=1;whiteSpace=wrap;html=1;fillColor=#f5f5f5;strokeColor=#666666;fontColor=#333333;opacity=50;" parent="1" vertex="1">
          <mxGeometry x="1360" y="-131" width="80" height="40" as="geometry" />
        </mxCell>
        <mxCell id="VIYJG-TJrEjDD1v3pH2z-74" value="All Access" style="text;strokeColor=none;fillColor=none;align=left;verticalAlign=middle;spacingLeft=4;spacingRight=4;overflow=hidden;points=[[0,0.5],[1,0.5]];portConstraint=eastwest;rotatable=0;whiteSpace=wrap;html=1;" parent="1" vertex="1">
          <mxGeometry x="1460" y="-131" width="140" height="30" as="geometry" />
        </mxCell>
        <mxCell id="VIYJG-TJrEjDD1v3pH2z-75" value="" style="rounded=1;whiteSpace=wrap;html=1;fillColor=#e1d5e7;strokeColor=#9673a6;opacity=25;" parent="1" vertex="1">
          <mxGeometry x="1475" y="750" width="170" height="380" as="geometry" />
        </mxCell>
        <mxCell id="VIYJG-TJrEjDD1v3pH2z-76" value="" style="rounded=1;whiteSpace=wrap;html=1;fillColor=#f8cecc;strokeColor=#b85450;opacity=25;" parent="1" vertex="1">
          <mxGeometry x="1235" y="660" width="170" height="470" as="geometry" />
        </mxCell>
        <mxCell id="QbguWH6vcUpEMpohlRz4-7" value="View All Off Sale Products by Product Category" style="ellipse;whiteSpace=wrap;html=1;" parent="1" vertex="1">
          <mxGeometry x="780" y="40" width="120" height="80" as="geometry" />
        </mxCell>
        <mxCell id="QbguWH6vcUpEMpohlRz4-13" value="View All Products by Product Category" style="ellipse;whiteSpace=wrap;html=1;" parent="1" vertex="1">
          <mxGeometry x="780" y="130" width="120" height="80" as="geometry" />
        </mxCell>
        <mxCell id="VIYJG-TJrEjDD1v3pH2z-7" value="View All On Sale Products by Product Category" style="ellipse;whiteSpace=wrap;html=1;" parent="1" vertex="1">
          <mxGeometry x="780" y="-50" width="120" height="80" as="geometry" />
        </mxCell>
        <mxCell id="VIYJG-TJrEjDD1v3pH2z-81" value="" style="rounded=1;whiteSpace=wrap;html=1;fillColor=#e1d5e7;strokeColor=#9673a6;opacity=50;" parent="1" vertex="1">
          <mxGeometry x="1360" y="-371" width="80" height="40" as="geometry" />
        </mxCell>
        <mxCell id="VIYJG-TJrEjDD1v3pH2z-82" value="Manager Access" style="text;strokeColor=none;fillColor=none;align=left;verticalAlign=middle;spacingLeft=4;spacingRight=4;overflow=hidden;points=[[0,0.5],[1,0.5]];portConstraint=eastwest;rotatable=0;whiteSpace=wrap;html=1;" parent="1" vertex="1">
          <mxGeometry x="1460" y="-371" width="140" height="30" as="geometry" />
        </mxCell>
        <mxCell id="VIYJG-TJrEjDD1v3pH2z-83" value="" style="rounded=1;whiteSpace=wrap;html=1;fillColor=#f5f5f5;strokeColor=#666666;opacity=25;fontColor=#333333;" parent="1" vertex="1">
          <mxGeometry x="755" y="-331" width="170" height="910" as="geometry" />
        </mxCell>
        <mxCell id="VIYJG-TJrEjDD1v3pH2z-84" value="" style="rounded=1;whiteSpace=wrap;html=1;fillColor=#d5e8d4;strokeColor=#82b366;opacity=25;" parent="1" vertex="1">
          <mxGeometry x="515" y="760" width="170" height="370" as="geometry" />
        </mxCell>
        <mxCell id="QbguWH6vcUpEMpohlRz4-17" value="View Cart" style="ellipse;whiteSpace=wrap;html=1;" parent="1" vertex="1">
          <mxGeometry x="300" y="590" width="120" height="80" as="geometry" />
        </mxCell>
        <mxCell id="VIYJG-TJrEjDD1v3pH2z-86" value="" style="rounded=1;whiteSpace=wrap;html=1;fillColor=#fff2cc;strokeColor=#d6b656;opacity=25;" parent="1" vertex="1">
          <mxGeometry x="275" y="585" width="170" height="545" as="geometry" />
        </mxCell>
        <mxCell id="VIYJG-TJrEjDD1v3pH2z-87" value="" style="rounded=1;whiteSpace=wrap;html=1;fillColor=#d5e8d4;strokeColor=#82b366;opacity=25;" parent="1" vertex="1">
          <mxGeometry x="755" y="582.5" width="170" height="550" as="geometry" />
        </mxCell>
        <mxCell id="VIYJG-TJrEjDD1v3pH2z-88" value="" style="rounded=1;whiteSpace=wrap;html=1;fillColor=#f8cecc;strokeColor=#b85450;opacity=25;" parent="1" vertex="1">
          <mxGeometry x="995" y="930" width="170" height="200" as="geometry" />
        </mxCell>
        <mxCell id="VIYJG-TJrEjDD1v3pH2z-99" value="&lt;font style=&quot;font-size: 14px;&quot;&gt;Legend&lt;/font&gt;" style="text;strokeColor=none;fillColor=none;align=left;verticalAlign=middle;spacingLeft=4;spacingRight=4;overflow=hidden;points=[[0,0.5],[1,0.5]];portConstraint=eastwest;rotatable=0;whiteSpace=wrap;html=1;" parent="1" vertex="1">
          <mxGeometry x="1360" y="-411" width="140" height="30" as="geometry" />
        </mxCell>
        <mxCell id="jhto0e9dB7dj2TypHfXZ-1" value="" style="rounded=1;whiteSpace=wrap;html=1;fillColor=#d5e8d4;strokeColor=#82b366;opacity=25;" vertex="1" parent="1">
          <mxGeometry x="275" y="-50" width="170" height="545" as="geometry" />
        </mxCell>
      </root>
    </mxGraphModel>
  </diagram>
</mxfile>
